# xmcd
#
# Track frame offsets: 
#        150
#        23219
#        43422
#        65488
#        83567
#        110950
#        125267
#        141214
#        172149
#        196437
#        216585
#        241427
#        260734
#        276899
#        286066
#
# Disc length: 4184 seconds
#
# Revision: 0
# Processed by: cddbd v1.5.2PL0 Copyright (c) Steve Scherf et al.
# Submitted via: ExactAudioCopy v0.99pb5
#
DISCID=f410560f
DTITLE=Bill Frisell - Nashville
DYEAR=1997
DGENRE=Country
TTITLE0=Gimme a holler
TTITLE1=Go Jake
TTITLE2=One of these days
TTITLE3=Mr. memory
TTITLE4=Brother
TTITLE5=Will Jesus wash the bloodstains from your hands
TTITLE6=Keep Your eyes open
TTITLE7=Pipe down
TTITLE8=Family
TTITLE9=We're not from around here
TTITLE10=Dogwood acres
TTITLE11=Shucks
TTITLE12=The end of the world
TTITLE13=Gone
TTITLE14=Shenandoah
EXTD=
EXTT0=
EXTT1=
EXTT2=
EXTT3=
EXTT4=
EXTT5=
EXTT6=
EXTT7=
EXTT8=
EXTT9=
EXTT10=
EXTT11=
EXTT12=
EXTT13=
EXTT14=
PLAYORDER=
